<?xml version="1.0" encoding="iso-8859-1"?>
<!-- Generator: Adobe Illustrator 16.0.0, SVG Export Plug-In . SVG Version: 6.00 Build 0)  -->
<!DOCTYPE svg PUBLIC "-//W3C//DTD SVG 1.1//EN" "http://www.w3.org/Graphics/SVG/1.1/DTD/svg11.dtd">
<svg version="1.1" id="Capa_1" xmlns="http://www.w3.org/2000/svg" xmlns:xlink="http://www.w3.org/1999/xlink" x="0px" y="0px"
	 width="653.029px" height="653.029px" viewBox="0 0 653.029 653.029" style="enable-background:new 0 0 653.029 653.029;"
	 xml:space="preserve">
<g>
	<g>
		<g>
			<path d="M381.803,398.299c2.02,5.357-0.68,11.353-6.037,13.371c-5.355,2.021-11.351-0.68-13.37-6.037l-18.707-49.572
				l-0.317-0.956c-4.209-12.201-11.141-19.558-18.026-22.574l-0.043-0.021l-0.021,0.021c-2.657-1.17-5.25-1.638-7.504-1.488
				c-1.828,0.127-3.444,0.701-4.634,1.658l0.042,0.021c-1.743,1.424-2.891,3.933-3.104,7.525l26.062,101.971l52.718,79.058
				c0.659,0.997,1.148,2.062,1.426,3.168l27.847,107.772h173.163l20.386-108.688V419.557v-86.666c0-3.02-0.787-5.823-2.147-8.163
				l-0.275-0.531c-1.424-2.275-3.443-4.209-5.782-5.569c-4.952-2.87-6.653-9.226-3.783-14.179c2.869-4.953,9.227-6.654,14.18-3.784
				c5.44,3.167,10.075,7.738,13.327,13.18l0.299,0.489c3.188,5.506,5.017,11.841,5.017,18.558v86.666v104.757h-0.043
				c0,0.639-0.042,1.254-0.17,1.914l-22.022,117.446c-0.53,5.25-4.974,9.354-10.353,9.354H410.14v-0.043
				c-4.613,0-8.822-3.104-10.034-7.761l-29.44-113.896l-52.378-78.547c-0.851-1.105-1.488-2.381-1.85-3.805l-26.72-104.5
				c-0.298-0.979-0.468-2.041-0.468-3.125c0-10.97,4.188-19.346,10.777-24.724l0.021,0.021l0.021-0.021
				c4.549-3.72,10.161-5.867,16.177-6.313c5.57-0.425,11.606,0.617,17.432,3.188v0.021c11.627,5.123,23.043,16.602,29.355,34.989
				l0.086,0.234L381.803,398.299z"/>
			<path d="M417.538,446.426c0,5.74-4.678,10.416-10.416,10.416c-5.74,0-10.417-4.653-10.417-10.416V198.522
				c0-10.225,4.188-19.536,10.947-26.295l0.063-0.042c6.76-6.76,16.092-10.947,26.273-10.947c10.246,0,19.6,4.208,26.339,10.947
				c6.737,6.76,10.946,16.092,10.946,26.338v234.47c0,5.738-4.677,10.416-10.416,10.416c-5.738,0-10.416-4.678-10.416-10.416
				v-234.47c0-4.506-1.871-8.63-4.847-11.627c-2.977-2.998-7.121-4.868-11.628-4.868c-4.528,0-8.651,1.85-11.606,4.804l-0.062,0.042
				c-2.955,2.955-4.805,7.079-4.805,11.628v247.924H417.538L417.538,446.426z"/>
			<path d="M525.036,432.992c0,5.738-4.678,10.416-10.416,10.416c-5.739,0-10.416-4.678-10.416-10.416V306.021
				c0-3.019-0.809-5.824-2.168-8.184c-1.446-2.508-3.571-4.634-6.06-6.08c-4.953-2.87-6.653-9.226-3.784-14.179
				c2.87-4.953,9.227-6.653,14.18-3.784c5.634,3.295,10.396,8.035,13.626,13.647c3.188,5.506,5.017,11.862,5.017,18.579v126.971
				L525.036,432.992L525.036,432.992z"/>
			<path d="M549.737,305.192c-4.952-2.87-6.652-9.226-3.783-14.179c2.869-4.953,9.227-6.653,14.179-3.784
				c5.634,3.274,10.374,8.036,13.626,13.668c3.188,5.527,5.018,11.883,5.018,18.558v113.556c0,5.74-4.677,10.418-10.416,10.418
				s-10.417-4.678-10.417-10.418V319.456c0-2.976-0.786-5.803-2.168-8.163C554.35,308.763,552.224,306.638,549.737,305.192z"/>
			<path d="M395.429,62.539c-3.104,0-6.207,1.318-8.247,4.06l-19.238,26.636l-19.345-26.508c-2.02-2.743-5.017-4.188-8.48-4.188
				c-5.975,0-10.522,4.889-10.522,10.395c0,2.147,0.596,4.421,2.02,6.334l25.573,34.054v24.723c0,5.846,4.782,10.501,10.628,10.501
				c5.975,0,10.757-4.655,10.757-10.501v-24.744l25.552-34.054c1.425-1.913,2.041-4.061,2.041-6.335
				C406.165,67.428,401.637,62.539,395.429,62.539z"/>
			<path d="M155.094,63.729c-5.74,0-10.268,4.783-10.268,10.395v62.943c0,5.506,4.783,10.268,10.268,10.268h26.997
				c18.282,0,30.462-12.074,30.462-27.358c0-12.415-7.759-17.559-7.759-17.559s5.123-4.634,5.123-14.667
				c0-12.669-9.438-24.021-27.231-24.021L155.094,63.729L155.094,63.729z M181.963,82.967c4.655,0,7.292,2.87,7.292,6.441
				c0,3.826-2.636,6.568-7.292,6.568h-16.007v-13.01L181.963,82.967L181.963,82.967z M182.558,112.834
				c5.74,0,9.311,2.742,9.311,7.292c0,4.655-3.571,8.12-9.311,8.12h-16.602v-15.412H182.558z"/>
			<path d="M234.936,72.934v36.903c0,22.937,17.325,38.688,38.709,38.688c21.384,0,38.943-15.773,38.943-38.688V72.806
				c0-5.612-4.655-10.267-10.628-10.267c-5.846,0-10.501,4.655-10.501,10.267v37.265c0,11.479-7.886,18.643-17.792,18.643
				c-9.672,0-17.559-7.164-17.559-18.643V72.934c0-5.867-4.783-10.395-10.629-10.395C239.592,62.539,234.936,67.067,234.936,72.934z
				"/>
			<path d="M508.987,187.086c-3.783,4.294-10.374,4.719-14.668,0.936c-4.294-3.783-4.719-10.374-0.936-14.667
				c3.444-3.933,6.229-8.46,8.078-13.329c1.765-4.677,2.742-9.842,2.742-15.242V64.155c0-11.883-4.891-22.746-12.733-30.589
				c-7.844-7.844-18.706-12.754-30.589-12.754H84.646c-11.904,0-22.745,4.889-30.568,12.712l-0.042,0.063
				c-7.823,7.823-12.712,18.664-12.712,30.568v80.608c0,11.904,4.868,22.767,12.69,30.589l0.042,0.021l0.021-0.021
				c7.844,7.844,18.707,12.754,30.568,12.754h282.17c5.74,0,10.396,4.677,10.396,10.416c0,5.74-4.655,10.416-10.396,10.416H84.646
				c-17.644,0-33.693-7.228-45.299-18.855l0.021-0.021c-11.627-11.649-18.855-27.698-18.855-45.299V64.155
				c0-17.559,7.206-33.587,18.834-45.236h0.021l0.021-0.021l0.021-0.021C51.06,7.228,67.088,0,84.646,0h376.235
				c17.644,0,33.691,7.228,45.299,18.855c11.606,11.607,18.834,27.656,18.834,45.321v80.587c0,7.865-1.487,15.497-4.145,22.575
				C518.084,174.693,514.003,181.368,508.987,187.086z"/>
		</g>
	</g>
</g>
<g>
</g>
<g>
</g>
<g>
</g>
<g>
</g>
<g>
</g>
<g>
</g>
<g>
</g>
<g>
</g>
<g>
</g>
<g>
</g>
<g>
</g>
<g>
</g>
<g>
</g>
<g>
</g>
<g>
</g>
</svg>
