<?xml version="1.0" encoding="iso-8859-1"?>
<!-- Generator: Adobe Illustrator 16.0.0, SVG Export Plug-In . SVG Version: 6.00 Build 0)  -->
<!DOCTYPE svg PUBLIC "-//W3C//DTD SVG 1.1//EN" "http://www.w3.org/Graphics/SVG/1.1/DTD/svg11.dtd">
<svg version="1.1" id="Capa_1" xmlns="http://www.w3.org/2000/svg" xmlns:xlink="http://www.w3.org/1999/xlink" x="0px" y="0px"
	 width="653.029px" height="653.029px" viewBox="0 0 653.029 653.029" style="enable-background:new 0 0 653.029 653.029;"
	 xml:space="preserve">
<g>
	<g>
		<g>
			<path d="M381.803,398.299c2.02,5.357-0.68,11.353-6.037,13.371c-5.355,2.021-11.351-0.68-13.37-6.037l-18.707-49.572
				l-0.298-0.956c-4.209-12.201-11.139-19.558-18.026-22.574l-0.042-0.021l-0.021,0.021c-2.657-1.17-5.25-1.638-7.503-1.488
				c-1.828,0.127-3.444,0.701-4.634,1.658l0.021,0.021c-1.743,1.424-2.891,3.933-3.104,7.525l26.083,101.971l52.719,79.058
				c0.659,0.997,1.146,2.062,1.424,3.168l27.848,107.772h173.162l20.388-108.688V419.557v-86.666c0-3.02-0.81-5.823-2.169-8.163
				l-0.276-0.531c-1.402-2.275-3.465-4.209-5.782-5.569c-4.952-2.87-6.652-9.226-3.783-14.179c2.87-4.953,9.227-6.654,14.18-3.784
				c5.44,3.167,10.076,7.738,13.328,13.18l0.298,0.489c3.188,5.506,5.017,11.841,5.017,18.558v86.666v104.757h-0.043
				c0,0.639-0.042,1.254-0.17,1.914l-22.021,117.446c-0.531,5.25-4.975,9.354-10.354,9.354H410.118v-0.043
				c-4.613,0-8.822-3.104-10.033-7.761l-29.442-113.897l-52.378-78.547c-0.85-1.105-1.488-2.381-1.849-3.806l-26.721-104.5
				c-0.297-0.979-0.489-2.041-0.489-3.125c0-10.969,4.188-19.345,10.777-24.723l0.021,0.021l0.021-0.021
				c4.549-3.72,10.161-5.867,16.177-6.313c5.57-0.425,11.607,0.617,17.431,3.188l-0.021,0.021
				c11.628,5.123,23.043,16.602,29.356,34.989l0.085,0.234L381.803,398.299z"/>
			<path d="M508.965,187.086c-3.784,4.294-10.354,4.719-14.668,0.936c-4.294-3.784-4.719-10.374-0.936-14.667
				c3.466-3.933,6.249-8.46,8.1-13.329c1.765-4.677,2.742-9.842,2.742-15.242V64.155c0-11.883-4.891-22.746-12.733-30.589
				c-7.844-7.844-18.706-12.754-30.589-12.754H84.646c-11.904,0-22.745,4.889-30.568,12.712l-0.042,0.063
				c-7.844,7.823-12.712,18.664-12.712,30.568v80.608c0,11.904,4.868,22.767,12.712,30.589l0.021,0.021l0.021-0.021
				c7.844,7.844,18.707,12.754,30.589,12.754h282.149c5.74,0,10.416,4.677,10.416,10.416c0,5.74-4.676,10.416-10.416,10.416H84.646
				c-17.644,0-33.693-7.228-45.299-18.855l0.021-0.021c-11.627-11.649-18.855-27.698-18.855-45.299V64.155
				c0-17.559,7.206-33.587,18.834-45.236h0.021l0.021-0.021l0.042-0.021C51.06,7.228,67.088,0,84.646,0h376.213
				c17.645,0,33.692,7.228,45.32,18.855c11.606,11.607,18.834,27.656,18.834,45.321v80.587c0,7.865-1.487,15.497-4.145,22.575
				C518.084,174.693,514.003,181.368,508.965,187.086z"/>
			<path d="M143.53,130.074c-14.328,0-14.073-10.076-23.043-10.076c-6.229,0-10.459,4.613-10.459,10.693
				c0,9.204,15.688,19.429,33.226,19.429c18.919,0,33.863-11.458,33.863-28.379c0-30.376-43.939-24.892-43.939-35.606
				c0-3.614,3.359-5.973,8.716-5.973c10.713,0,13.201,8.333,22.043,8.333c6.484,0,10.459-4.975,10.459-9.46
				c0-9.077-12.202-18.558-31.631-18.558c-19.174,0-31.375,12.202-31.375,26.636c0,31.376,43.322,22.894,43.322,35.351
				C154.731,127.332,149.63,130.074,143.53,130.074z"/>
			<path d="M257.384,82.266c7.61,0,10.969-5.357,10.969-10.204s-3.359-10.331-10.969-10.331h-45.3c-7.1,0-10.947,4.74-10.947,10.713
				v65.367c0,6.59,3.869,11.075,10.947,11.075h45.321c7.61,0,10.969-5.484,10.969-10.331c0-4.847-3.358-10.332-10.969-10.332
				h-34.373V114.13h27.89c7.589,0,11.075-5.102,11.075-9.949c0-4.868-3.486-10.097-11.075-10.097h-27.89V82.265L257.384,82.266
				L257.384,82.266z"/>
			<path d="M292.948,138.173c0,5.973,3.848,10.714,10.948,10.714h40.219c7.59,0,10.947-5.612,10.947-10.459
				c0-4.868-3.357-10.204-10.947-10.204h-29.25V71.318c0-5.973-4.847-10.841-10.948-10.841s-10.947,4.868-10.947,10.841v66.854
				L292.948,138.173L292.948,138.173z"/>
			<path d="M375.299,138.173c0,5.973,3.847,10.714,10.947,10.714h40.219c7.589,0,10.947-5.612,10.947-10.459
				c0-4.868-3.358-10.204-10.947-10.204h-29.271V71.318c0-5.973-4.868-10.841-10.946-10.841c-6.08,0-10.947,4.868-10.947,10.841
				L375.299,138.173L375.299,138.173z"/>
			<path d="M417.537,446.426c0,5.74-4.678,10.416-10.416,10.416c-5.74,0-10.417-4.653-10.417-10.416V198.522
				c0-10.225,4.188-19.536,10.947-26.295l0.063-0.042c6.76-6.76,16.092-10.947,26.273-10.947c10.246,0,19.6,4.208,26.339,10.947
				c6.737,6.76,10.946,16.092,10.946,26.338v234.47c0,5.738-4.677,10.416-10.416,10.416c-5.738,0-10.416-4.678-10.416-10.416
				v-234.47c0-4.506-1.871-8.63-4.847-11.627c-2.997-2.998-7.121-4.868-11.628-4.868c-4.549,0-8.673,1.85-11.606,4.804l-0.043,0.042
				c-2.954,2.955-4.804,7.079-4.804,11.628v247.924H417.537L417.537,446.426z"/>
			<path d="M525.014,432.992c0,5.738-4.676,10.416-10.416,10.416c-5.739,0-10.416-4.678-10.416-10.416V306.021
				c0-3.019-0.786-5.824-2.168-8.184c-1.445-2.508-3.571-4.634-6.08-6.08c-4.952-2.87-6.653-9.226-3.783-14.179
				c2.869-4.953,9.227-6.653,14.18-3.784c5.633,3.295,10.395,8.035,13.646,13.647c3.188,5.506,5.018,11.862,5.018,18.579v126.971
				L525.014,432.992L525.014,432.992z"/>
			<path d="M549.736,305.192c-4.952-2.87-6.652-9.226-3.783-14.179c2.869-4.953,9.227-6.653,14.179-3.784
				c5.634,3.274,10.374,8.036,13.626,13.668c3.188,5.527,5.018,11.883,5.018,18.558v113.556c0,5.74-4.677,10.418-10.416,10.418
				s-10.417-4.678-10.417-10.418V319.456c0-2.976-0.808-5.803-2.168-8.163C554.328,308.763,552.224,306.638,549.736,305.192z"/>
		</g>
	</g>
</g>
<g>
</g>
<g>
</g>
<g>
</g>
<g>
</g>
<g>
</g>
<g>
</g>
<g>
</g>
<g>
</g>
<g>
</g>
<g>
</g>
<g>
</g>
<g>
</g>
<g>
</g>
<g>
</g>
<g>
</g>
</svg>
